<svg xmlns="http://www.w3.org/2000/svg" xmlns:xlink="http://www.w3.org/1999/xlink" width="1500" zoomAndPan="magnify" viewBox="0 0 1125 165.750002" height="221" preserveAspectRatio="xMidYMid meet" version="1.2"><defs><clipPath id="b4867524ca"><path d="M 71 0 L 1068 0 L 1068 165.5 L 71 165.5 Z M 71 0 "/></clipPath><clipPath id="935133ed4e"><rect x="0" width="997" y="0" height="166"/></clipPath></defs><g id="d04b3e2a07"><g clip-rule="nonzero" clip-path="url(#b4867524ca)"><g transform="matrix(1,0,0,1,71,-0.00000000000000519)"><g clip-path="url(#935133ed4e)"><g style="fill:#000000;fill-opacity:1;"><g transform="translate(0.93764, 108.139664)"><path style="stroke:none" d="M 38.96875 1.671875 C 32.40625 1.671875 26.535156 0.285156 21.359375 -2.484375 C 16.179688 -5.265625 12.085938 -9.585938 9.078125 -15.453125 C 6.078125 -21.328125 4.578125 -28.890625 4.578125 -38.140625 C 4.578125 -46.554688 6.03125 -54.578125 8.9375 -62.203125 C 11.851562 -69.835938 15.851562 -76.613281 20.9375 -82.53125 C 26.03125 -88.445312 31.832031 -93.113281 38.34375 -96.53125 C 44.863281 -99.957031 51.6875 -101.671875 58.8125 -101.671875 C 67.59375 -101.671875 74.175781 -99.863281 78.5625 -96.25 C 82.957031 -92.644531 85.15625 -87.835938 85.15625 -81.828125 C 85.15625 -77.765625 84.367188 -74.019531 82.796875 -70.59375 C 81.234375 -67.175781 79.175781 -64.195312 76.625 -61.65625 C 74.082031 -59.113281 71.378906 -57.144531 68.515625 -55.75 C 65.648438 -54.363281 62.921875 -53.671875 60.328125 -53.671875 C 58.390625 -53.671875 56.957031 -54.25 56.03125 -55.40625 C 55.113281 -56.5625 55.023438 -57.878906 55.765625 -59.359375 C 59.367188 -66.203125 60.59375 -71.148438 59.4375 -74.203125 C 58.28125 -77.253906 55.757812 -78.78125 51.875 -78.78125 C 47.71875 -78.78125 43.953125 -77.484375 40.578125 -74.890625 C 37.203125 -72.304688 34.539062 -68.957031 32.59375 -64.84375 C 30.65625 -60.726562 29.6875 -56.359375 29.6875 -51.734375 C 29.6875 -47.578125 30.675781 -43.785156 32.65625 -40.359375 C 34.644531 -36.941406 37.648438 -34.191406 41.671875 -32.109375 C 45.703125 -30.023438 50.769531 -28.984375 56.875 -28.984375 C 61.21875 -28.984375 65.628906 -29.628906 70.109375 -30.921875 C 74.597656 -32.222656 78 -34.582031 80.3125 -38 C 81.050781 -39.113281 82 -39.507812 83.15625 -39.1875 C 84.3125 -38.863281 85.28125 -38.238281 86.0625 -37.3125 C 86.851562 -36.382812 87.015625 -35.457031 86.546875 -34.53125 C 80.722656 -22.789062 74.019531 -13.820312 66.4375 -7.625 C 58.851562 -1.425781 49.695312 1.671875 38.96875 1.671875 Z M 38.96875 1.671875 "/></g></g><g style="fill:#000000;fill-opacity:1;"><g transform="translate(78.049313, 108.139664)"><path style="stroke:none" d="M 14.703125 0 C 9.984375 0 6.421875 -1.941406 4.015625 -5.828125 C 1.617188 -9.710938 0.421875 -14.75 0.421875 -20.9375 C 0.421875 -24.820312 0.90625 -28.960938 1.875 -33.359375 C 2.84375 -37.753906 4.273438 -42.078125 6.171875 -46.328125 C 8.066406 -50.578125 10.445312 -54.4375 13.3125 -57.90625 C 16.175781 -61.375 19.503906 -64.144531 23.296875 -66.21875 C 27.085938 -68.300781 31.390625 -69.34375 36.203125 -69.34375 C 38.972656 -69.34375 41.117188 -69.085938 42.640625 -68.578125 C 44.171875 -68.078125 45.328125 -67.457031 46.109375 -66.71875 C 46.898438 -65.976562 47.570312 -65.351562 48.125 -64.84375 C 48.6875 -64.332031 49.425781 -64.078125 50.34375 -64.078125 C 51.914062 -64.078125 53.1875 -64.515625 54.15625 -65.390625 C 55.132812 -66.273438 56.222656 -67.15625 57.421875 -68.03125 C 58.617188 -68.90625 60.285156 -69.34375 62.421875 -69.34375 C 64.265625 -69.34375 65.53125 -68.878906 66.21875 -67.953125 C 66.914062 -67.035156 67.265625 -65.789062 67.265625 -64.21875 C 67.265625 -61.625 66.546875 -59.054688 65.109375 -56.515625 C 63.679688 -53.972656 62.179688 -50.671875 60.609375 -46.609375 C 58.296875 -41.515625 57.441406 -37.628906 58.046875 -34.953125 C 58.648438 -32.273438 60.476562 -30.9375 63.53125 -30.9375 C 65.925781 -30.9375 68.003906 -31.554688 69.765625 -32.796875 C 71.523438 -34.046875 73.097656 -35.78125 74.484375 -38 C 75.222656 -39.113281 76.171875 -39.507812 77.328125 -39.1875 C 78.484375 -38.863281 79.453125 -38.238281 80.234375 -37.3125 C 81.023438 -36.382812 81.1875 -35.457031 80.71875 -34.53125 C 79.0625 -31.300781 77.285156 -27.71875 75.390625 -23.78125 C 73.492188 -19.851562 71.390625 -16.085938 69.078125 -12.484375 C 66.765625 -8.878906 64.128906 -5.894531 61.171875 -3.53125 C 58.210938 -1.175781 54.789062 0 50.90625 0 C 46.09375 0 42.691406 -1.941406 40.703125 -5.828125 C 38.722656 -9.710938 38.144531 -14.519531 38.96875 -20.25 L 38.421875 -20.25 C 35.648438 -14.613281 32.226562 -9.828125 28.15625 -5.890625 C 24.082031 -1.960938 19.597656 0 14.703125 0 Z M 28.578125 -28.71875 C 30.972656 -28.71875 33.070312 -29.410156 34.875 -30.796875 C 36.6875 -32.179688 38.097656 -33.867188 39.109375 -35.859375 C 40.128906 -37.847656 40.640625 -39.8125 40.640625 -41.75 C 40.640625 -44.0625 39.988281 -45.863281 38.6875 -47.15625 C 37.394531 -48.445312 35.640625 -49.09375 33.421875 -49.09375 C 31.023438 -49.09375 28.945312 -48.445312 27.1875 -47.15625 C 25.425781 -45.863281 24.0625 -44.222656 23.09375 -42.234375 C 22.125 -40.242188 21.640625 -38.234375 21.640625 -36.203125 C 21.640625 -33.890625 22.257812 -32.0625 23.5 -30.71875 C 24.75 -29.382812 26.441406 -28.71875 28.578125 -28.71875 Z M 28.578125 -28.71875 "/></g></g><g style="fill:#000000;fill-opacity:1;"><g transform="translate(149.336008, 108.139664)"><path style="stroke:none" d="M 57.984375 -38 C 58.722656 -39.113281 59.691406 -39.507812 60.890625 -39.1875 C 62.085938 -38.863281 63.078125 -38.238281 63.859375 -37.3125 C 64.648438 -36.382812 64.769531 -35.457031 64.21875 -34.53125 C 63.289062 -33.050781 62.179688 -30.898438 60.890625 -28.078125 C 59.597656 -25.265625 58.050781 -22.257812 56.25 -19.0625 C 54.445312 -15.875 52.34375 -12.820312 49.9375 -9.90625 C 47.53125 -7 44.820312 -4.617188 41.8125 -2.765625 C 38.8125 -0.921875 35.414062 0 31.625 0 C 27.832031 0 24.828125 -0.710938 22.609375 -2.140625 C 20.390625 -3.578125 18.789062 -5.425781 17.8125 -7.6875 C 16.84375 -9.957031 16.359375 -12.25 16.359375 -14.5625 C 16.359375 -17.800781 16.84375 -20.988281 17.8125 -24.125 C 18.789062 -27.269531 19.925781 -30.273438 21.21875 -33.140625 C 22.507812 -36.015625 23.640625 -38.648438 24.609375 -41.046875 C 25.585938 -43.453125 26.078125 -45.488281 26.078125 -47.15625 C 26.078125 -47.894531 25.546875 -48.976562 24.484375 -50.40625 C 23.421875 -51.84375 21.5 -53.070312 18.71875 -54.09375 C 17.894531 -52.238281 16.90625 -50.085938 15.75 -47.640625 C 14.59375 -45.191406 13.4375 -42.785156 12.28125 -40.421875 C 11.125 -38.066406 10.175781 -36.101562 9.4375 -34.53125 C 8.875 -33.332031 7.96875 -32.894531 6.71875 -33.21875 C 5.476562 -33.539062 4.441406 -34.207031 3.609375 -35.21875 C 2.773438 -36.238281 2.632812 -37.164062 3.1875 -38 C 4.476562 -39.851562 5.910156 -42.554688 7.484375 -46.109375 C 9.054688 -49.671875 10.445312 -53.023438 11.65625 -56.171875 C 10.269531 -56.640625 9.160156 -57.425781 8.328125 -58.53125 C 7.492188 -59.644531 7.078125 -61.445312 7.078125 -63.9375 C 7.078125 -65.882812 7.582031 -67.804688 8.59375 -69.703125 C 9.613281 -71.597656 11.046875 -73.191406 12.890625 -74.484375 C 14.742188 -75.773438 16.921875 -76.421875 19.421875 -76.421875 C 23.765625 -76.421875 27.945312 -75.585938 31.96875 -73.921875 C 35.988281 -72.265625 39.289062 -70.160156 41.875 -67.609375 C 44.46875 -65.066406 45.765625 -62.550781 45.765625 -60.0625 C 45.765625 -57.46875 45.28125 -55.015625 44.3125 -52.703125 C 43.34375 -50.390625 42.347656 -48.03125 41.328125 -45.625 C 40.316406 -43.226562 39.8125 -40.597656 39.8125 -37.734375 C 39.8125 -35.785156 40.457031 -34.164062 41.75 -32.875 C 43.039062 -31.582031 45.257812 -30.9375 48.40625 -30.9375 C 50.53125 -30.9375 52.304688 -31.601562 53.734375 -32.9375 C 55.171875 -34.28125 56.585938 -35.96875 57.984375 -38 Z M 57.984375 -38 "/></g></g><g style="fill:#000000;fill-opacity:1;"><g transform="translate(204.118579, 108.139664)"><path style="stroke:none" d="M 57 -38 C 57.738281 -39.113281 58.6875 -39.507812 59.84375 -39.1875 C 61 -38.863281 61.96875 -38.238281 62.75 -37.3125 C 63.539062 -36.382812 63.707031 -35.457031 63.25 -34.53125 C 62.507812 -32.957031 61.421875 -30.757812 59.984375 -27.9375 C 58.554688 -25.125 56.753906 -22.117188 54.578125 -18.921875 C 52.398438 -15.734375 49.765625 -12.707031 46.671875 -9.84375 C 43.578125 -6.976562 40.015625 -4.644531 35.984375 -2.84375 C 31.960938 -1.039062 27.363281 -0.140625 22.1875 -0.140625 C 16.082031 -0.140625 11.25 -1.429688 7.6875 -4.015625 C 4.132812 -6.609375 1.707031 -9.890625 0.40625 -13.859375 C -0.882812 -17.835938 -1.25 -22 -0.6875 -26.34375 C -0.132812 -30.695312 1.15625 -34.582031 3.1875 -38 L 3.75 -38.84375 C 6.238281 -42.164062 8.707031 -45.789062 11.15625 -49.71875 C 13.613281 -53.65625 16.132812 -57.351562 18.71875 -60.8125 C 21.3125 -64.28125 23.992188 -67.144531 26.765625 -69.40625 C 29.546875 -71.675781 32.414062 -72.8125 35.375 -72.8125 C 39.71875 -72.8125 42.925781 -71.796875 45 -69.765625 C 47.082031 -67.734375 48.078125 -65.609375 47.984375 -63.390625 C 47.984375 -62.273438 47.5 -61.347656 46.53125 -60.609375 C 45.5625 -59.867188 44.40625 -59.195312 43.0625 -58.59375 C 41.726562 -58 40.550781 -57.257812 39.53125 -56.375 C 38.507812 -55.5 38 -54.367188 38 -52.984375 C 38 -52.148438 38.644531 -50.484375 39.9375 -47.984375 C 41.238281 -45.492188 42.628906 -42.695312 44.109375 -39.59375 C 45.585938 -36.5 46.601562 -33.519531 47.15625 -30.65625 C 49.28125 -30.75 51.101562 -31.488281 52.625 -32.875 C 54.15625 -34.257812 55.613281 -35.96875 57 -38 Z M 17.203125 -28.71875 C 20.253906 -28.71875 22.609375 -29.6875 24.265625 -31.625 C 25.929688 -33.5625 26.765625 -35.96875 26.765625 -38.84375 C 26.765625 -40.5 26.507812 -42.207031 26 -43.96875 C 25.5 -45.726562 24.738281 -47.53125 23.71875 -49.375 C 22.789062 -51.226562 21.679688 -51.226562 20.390625 -49.375 C 18.628906 -46.789062 16.753906 -44.179688 14.765625 -41.546875 C 12.785156 -38.910156 11.007812 -36.570312 9.4375 -34.53125 C 9.4375 -32.875 10.148438 -31.488281 11.578125 -30.375 C 13.015625 -29.269531 14.890625 -28.71875 17.203125 -28.71875 Z M 17.203125 -28.71875 "/></g></g><g style="fill:#000000;fill-opacity:1;"><g transform="translate(257.79164, 108.139664)"><path style="stroke:none" d=""/></g></g><g style="fill:#000000;fill-opacity:1;"><g transform="translate(307.72005, 108.139664)"><path style="stroke:none" d="M 14.703125 0 C 9.984375 0 6.421875 -1.941406 4.015625 -5.828125 C 1.617188 -9.710938 0.421875 -14.75 0.421875 -20.9375 C 0.421875 -24.820312 0.90625 -28.960938 1.875 -33.359375 C 2.84375 -37.753906 4.273438 -42.078125 6.171875 -46.328125 C 8.066406 -50.578125 10.445312 -54.4375 13.3125 -57.90625 C 16.175781 -61.375 19.503906 -64.144531 23.296875 -66.21875 C 27.085938 -68.300781 31.390625 -69.34375 36.203125 -69.34375 C 38.972656 -69.34375 41.117188 -69.085938 42.640625 -68.578125 C 44.171875 -68.078125 45.328125 -67.457031 46.109375 -66.71875 C 46.898438 -65.976562 47.570312 -65.351562 48.125 -64.84375 C 48.6875 -64.332031 49.425781 -64.078125 50.34375 -64.078125 C 51.914062 -64.078125 53.1875 -64.515625 54.15625 -65.390625 C 55.132812 -66.273438 56.222656 -67.15625 57.421875 -68.03125 C 58.617188 -68.90625 60.285156 -69.34375 62.421875 -69.34375 C 64.265625 -69.34375 65.53125 -68.878906 66.21875 -67.953125 C 66.914062 -67.035156 67.265625 -65.789062 67.265625 -64.21875 C 67.265625 -61.625 66.546875 -59.054688 65.109375 -56.515625 C 63.679688 -53.972656 62.179688 -50.671875 60.609375 -46.609375 C 58.296875 -41.515625 57.441406 -37.628906 58.046875 -34.953125 C 58.648438 -32.273438 60.476562 -30.9375 63.53125 -30.9375 C 65.925781 -30.9375 68.003906 -31.554688 69.765625 -32.796875 C 71.523438 -34.046875 73.097656 -35.78125 74.484375 -38 C 75.222656 -39.113281 76.171875 -39.507812 77.328125 -39.1875 C 78.484375 -38.863281 79.453125 -38.238281 80.234375 -37.3125 C 81.023438 -36.382812 81.1875 -35.457031 80.71875 -34.53125 C 79.0625 -31.300781 77.285156 -27.71875 75.390625 -23.78125 C 73.492188 -19.851562 71.390625 -16.085938 69.078125 -12.484375 C 66.765625 -8.878906 64.128906 -5.894531 61.171875 -3.53125 C 58.210938 -1.175781 54.789062 0 50.90625 0 C 46.09375 0 42.691406 -1.941406 40.703125 -5.828125 C 38.722656 -9.710938 38.144531 -14.519531 38.96875 -20.25 L 38.421875 -20.25 C 35.648438 -14.613281 32.226562 -9.828125 28.15625 -5.890625 C 24.082031 -1.960938 19.597656 0 14.703125 0 Z M 28.578125 -28.71875 C 30.972656 -28.71875 33.070312 -29.410156 34.875 -30.796875 C 36.6875 -32.179688 38.097656 -33.867188 39.109375 -35.859375 C 40.128906 -37.847656 40.640625 -39.8125 40.640625 -41.75 C 40.640625 -44.0625 39.988281 -45.863281 38.6875 -47.15625 C 37.394531 -48.445312 35.640625 -49.09375 33.421875 -49.09375 C 31.023438 -49.09375 28.945312 -48.445312 27.1875 -47.15625 C 25.425781 -45.863281 24.0625 -44.222656 23.09375 -42.234375 C 22.125 -40.242188 21.640625 -38.234375 21.640625 -36.203125 C 21.640625 -33.890625 22.257812 -32.0625 23.5 -30.71875 C 24.75 -29.382812 26.441406 -28.71875 28.578125 -28.71875 Z M 28.578125 -28.71875 "/></g></g><g style="fill:#000000;fill-opacity:1;"><g transform="translate(379.006745, 108.139664)"><path style="stroke:none" d="M 8.734375 0 C 5.503906 0 3.007812 -0.96875 1.25 -2.90625 C -0.507812 -4.851562 -1.390625 -7.257812 -1.390625 -10.125 C -1.390625 -13.363281 -1.019531 -17.410156 -0.28125 -22.265625 C 0.457031 -27.117188 1.613281 -32.363281 3.1875 -38 C 4.757812 -43.457031 6.492188 -48.566406 8.390625 -53.328125 C 10.285156 -58.085938 12.226562 -61.945312 14.21875 -64.90625 C 16.207031 -67.863281 18.078125 -69.34375 19.828125 -69.34375 C 21.679688 -69.34375 22.90625 -68.8125 23.5 -67.75 C 24.101562 -66.6875 24.40625 -65.460938 24.40625 -64.078125 C 24.40625 -61.398438 25.050781 -59.734375 26.34375 -59.078125 C 27.644531 -58.429688 29.40625 -59.222656 31.625 -61.453125 C 34.21875 -63.941406 36.898438 -65.878906 39.671875 -67.265625 C 42.441406 -68.648438 45.351562 -69.34375 48.40625 -69.34375 C 52.65625 -69.34375 55.796875 -68.09375 57.828125 -65.59375 C 59.867188 -63.101562 60.890625 -60.101562 60.890625 -56.59375 C 60.890625 -54.1875 60.519531 -51.988281 59.78125 -50 C 59.039062 -48.007812 58.300781 -46.066406 57.5625 -44.171875 C 56.820312 -42.273438 56.453125 -40.171875 56.453125 -37.859375 C 56.453125 -33.242188 58.671875 -30.9375 63.109375 -30.9375 C 65.234375 -30.9375 67.007812 -31.601562 68.4375 -32.9375 C 69.875 -34.28125 71.289062 -35.96875 72.6875 -38 C 73.425781 -39.113281 74.394531 -39.507812 75.59375 -39.1875 C 76.789062 -38.863281 77.78125 -38.238281 78.5625 -37.3125 C 79.351562 -36.382812 79.472656 -35.457031 78.921875 -34.53125 C 77.992188 -33.050781 76.882812 -30.898438 75.59375 -28.078125 C 74.300781 -25.265625 72.75 -22.257812 70.9375 -19.0625 C 69.132812 -15.875 67.03125 -12.820312 64.625 -9.90625 C 62.226562 -7 59.523438 -4.617188 56.515625 -2.765625 C 53.515625 -0.921875 50.117188 0 46.328125 0 C 41.984375 0 38.929688 -1.429688 37.171875 -4.296875 C 35.410156 -7.160156 34.53125 -10.535156 34.53125 -14.421875 C 34.53125 -17.941406 35.015625 -21.296875 35.984375 -24.484375 C 36.960938 -27.671875 37.9375 -30.582031 38.90625 -33.21875 C 39.875 -35.851562 40.359375 -38.097656 40.359375 -39.953125 C 40.359375 -41.515625 39.875 -42.710938 38.90625 -43.546875 C 37.9375 -44.378906 36.664062 -44.796875 35.09375 -44.796875 C 32.40625 -44.796875 29.925781 -43.660156 27.65625 -41.390625 C 25.394531 -39.128906 23.570312 -36.195312 22.1875 -32.59375 C 20.800781 -28.988281 20.109375 -25.101562 20.109375 -20.9375 L 20.109375 -14.703125 C 20.109375 -12.390625 19.832031 -10.097656 19.28125 -7.828125 C 18.726562 -5.566406 17.640625 -3.695312 16.015625 -2.21875 C 14.398438 -0.738281 11.972656 0 8.734375 0 Z M 8.734375 0 "/></g></g><g style="fill:#000000;fill-opacity:1;"><g transform="translate(448.49046, 108.139664)"><path style="stroke:none" d="M 16.234375 0 C 10.773438 0 6.773438 -1.894531 4.234375 -5.6875 C 1.691406 -9.476562 0.421875 -14.148438 0.421875 -19.703125 C 0.421875 -24.878906 1.160156 -30.332031 2.640625 -36.0625 C 4.117188 -41.789062 6.359375 -47.175781 9.359375 -52.21875 C 12.367188 -57.257812 16.113281 -61.375 20.59375 -64.5625 C 25.082031 -67.75 30.285156 -69.34375 36.203125 -69.34375 C 38.972656 -69.34375 41.117188 -69.019531 42.640625 -68.375 C 44.171875 -67.726562 45.328125 -66.96875 46.109375 -66.09375 C 46.898438 -65.21875 47.570312 -64.429688 48.125 -63.734375 C 48.6875 -63.035156 49.425781 -62.6875 50.34375 -62.6875 C 51.082031 -62.6875 51.679688 -63.519531 52.140625 -65.1875 C 52.609375 -66.851562 53.304688 -69.328125 54.234375 -72.609375 C 55.160156 -75.890625 56.59375 -79.890625 58.53125 -84.609375 C 60.289062 -88.859375 62.023438 -92.070312 63.734375 -94.25 C 65.441406 -96.425781 67.082031 -97.882812 68.65625 -98.625 C 70.226562 -99.363281 71.707031 -99.734375 73.09375 -99.734375 C 75.5 -99.734375 77.09375 -98.550781 77.875 -96.1875 C 78.664062 -93.832031 78.132812 -90.664062 76.28125 -86.6875 L 60.609375 -46.609375 C 58.296875 -41.515625 57.441406 -37.628906 58.046875 -34.953125 C 58.648438 -32.273438 60.476562 -30.9375 63.53125 -30.9375 C 65.925781 -30.9375 68.003906 -31.554688 69.765625 -32.796875 C 71.523438 -34.046875 73.097656 -35.78125 74.484375 -38 C 75.222656 -39.113281 76.171875 -39.507812 77.328125 -39.1875 C 78.484375 -38.863281 79.453125 -38.238281 80.234375 -37.3125 C 81.023438 -36.382812 81.1875 -35.457031 80.71875 -34.53125 C 79.0625 -31.300781 77.285156 -27.71875 75.390625 -23.78125 C 73.492188 -19.851562 71.390625 -16.085938 69.078125 -12.484375 C 66.765625 -8.878906 64.128906 -5.894531 61.171875 -3.53125 C 58.210938 -1.175781 54.789062 0 50.90625 0 C 46.46875 0 43.179688 -1.941406 41.046875 -5.828125 C 38.921875 -9.710938 38.226562 -14.519531 38.96875 -20.25 L 38.421875 -20.25 C 35.554688 -14.613281 32.203125 -9.828125 28.359375 -5.890625 C 24.523438 -1.960938 20.484375 0 16.234375 0 Z M 28.84375 -28.71875 C 31.15625 -28.71875 33.191406 -29.410156 34.953125 -30.796875 C 36.710938 -32.179688 38.097656 -33.867188 39.109375 -35.859375 C 40.128906 -37.847656 40.640625 -39.8125 40.640625 -41.75 C 40.640625 -43.78125 40.035156 -45.507812 38.828125 -46.9375 C 37.628906 -48.375 35.691406 -49.09375 33.015625 -49.09375 C 30.796875 -49.09375 28.828125 -48.445312 27.109375 -47.15625 C 25.398438 -45.863281 24.0625 -44.222656 23.09375 -42.234375 C 22.125 -40.242188 21.640625 -38.234375 21.640625 -36.203125 C 21.640625 -34.171875 22.191406 -32.414062 23.296875 -30.9375 C 24.410156 -29.457031 26.257812 -28.71875 28.84375 -28.71875 Z M 28.84375 -28.71875 "/></g></g><g style="fill:#000000;fill-opacity:1;"><g transform="translate(519.777155, 108.139664)"><path style="stroke:none" d=""/></g></g><g style="fill:#000000;fill-opacity:1;"><g transform="translate(569.705565, 108.139664)"><path style="stroke:none" d="M 123.3125 -38 C 124.050781 -39.113281 125.019531 -39.507812 126.21875 -39.1875 C 127.414062 -38.863281 128.40625 -38.238281 129.1875 -37.3125 C 129.976562 -36.382812 130.097656 -35.457031 129.546875 -34.53125 C 128.617188 -32.957031 127.484375 -30.785156 126.140625 -28.015625 C 124.804688 -25.242188 123.164062 -22.257812 121.21875 -19.0625 C 119.28125 -15.875 117.015625 -12.820312 114.421875 -9.90625 C 111.835938 -7 108.878906 -4.617188 105.546875 -2.765625 C 102.222656 -0.921875 98.523438 0 94.453125 0 C 89.554688 0 85.628906 -1.429688 82.671875 -4.296875 C 79.710938 -7.160156 78.234375 -11.273438 78.234375 -16.640625 C 78.234375 -19.691406 78.441406 -22.953125 78.859375 -26.421875 C 79.273438 -29.890625 80.175781 -33.703125 81.5625 -37.859375 L 81.703125 -38.421875 C 82.523438 -41.097656 82.632812 -42.898438 82.03125 -43.828125 C 81.4375 -44.753906 80.285156 -45.21875 78.578125 -45.21875 C 76.867188 -45.21875 74.8125 -45.21875 72.40625 -45.21875 C 71.382812 -45.21875 70.390625 -45.078125 69.421875 -44.796875 C 68.453125 -44.523438 67.457031 -43.460938 66.4375 -41.609375 C 66.25 -41.242188 66.0625 -40.851562 65.875 -40.4375 C 65.695312 -40.019531 65.515625 -39.625 65.328125 -39.25 C 64.492188 -37.3125 63.726562 -35.554688 63.03125 -33.984375 C 62.34375 -32.410156 61.769531 -31.113281 61.3125 -30.09375 C 56.21875 -19.1875 50.039062 -10.472656 42.78125 -3.953125 C 35.53125 2.566406 26.957031 5.828125 17.0625 5.828125 C 11.695312 5.828125 7.234375 4.691406 3.671875 2.421875 C 0.109375 0.160156 -2.546875 -2.769531 -4.296875 -6.375 C -6.054688 -9.988281 -6.9375 -13.691406 -6.9375 -17.484375 C -6.9375 -21.265625 -6.171875 -24.890625 -4.640625 -28.359375 C -3.117188 -31.828125 -0.972656 -34.644531 1.796875 -36.8125 C 4.578125 -38.988281 7.816406 -40.078125 11.515625 -40.078125 C 12.898438 -40.078125 13.59375 -39.523438 13.59375 -38.421875 C 13.59375 -35.367188 14.910156 -32.894531 17.546875 -31 C 20.179688 -29.101562 23.394531 -28.15625 27.1875 -28.15625 C 30.425781 -28.15625 33.753906 -28.960938 37.171875 -30.578125 C 40.585938 -32.203125 43.820312 -34.769531 46.875 -38.28125 C 49.925781 -41.789062 52.519531 -46.320312 54.65625 -51.875 C 56.3125 -56.21875 58.15625 -60.816406 60.1875 -65.671875 C 62.226562 -70.523438 64.3125 -75.632812 66.4375 -81 C 62.09375 -82.207031 58.046875 -82.1875 54.296875 -80.9375 C 50.554688 -79.6875 47.550781 -77.554688 45.28125 -74.546875 C 43.019531 -71.546875 41.890625 -68.054688 41.890625 -64.078125 C 41.890625 -62.140625 42.394531 -60.5 43.40625 -59.15625 C 44.425781 -57.8125 45.675781 -57.140625 47.15625 -57.140625 C 47.800781 -55.660156 47.847656 -53.878906 47.296875 -51.796875 C 46.742188 -49.722656 45.65625 -47.738281 44.03125 -45.84375 C 42.414062 -43.945312 40.335938 -42.347656 37.796875 -41.046875 C 35.253906 -39.753906 32.316406 -39.109375 28.984375 -39.109375 C 25.191406 -39.109375 22 -40.054688 19.40625 -41.953125 C 16.820312 -43.847656 14.882812 -46.367188 13.59375 -49.515625 C 12.300781 -52.660156 11.65625 -55.988281 11.65625 -59.5 C 11.65625 -65.414062 12.898438 -71.007812 15.390625 -76.28125 C 17.890625 -81.550781 21.453125 -86.195312 26.078125 -90.21875 C 30.703125 -94.25 36.132812 -97.414062 42.375 -99.71875 C 48.613281 -102.03125 55.476562 -103.1875 62.96875 -103.1875 C 72.3125 -103.1875 78.390625 -101.128906 81.203125 -97.015625 C 84.023438 -92.898438 84.097656 -87.378906 81.421875 -80.453125 C 79.472656 -74.347656 77.207031 -68.054688 74.625 -61.578125 C 74.625 -61.492188 74.578125 -61.40625 74.484375 -61.3125 C 73.460938 -58.625 73.367188 -56.910156 74.203125 -56.171875 C 75.035156 -55.429688 76.050781 -55.0625 77.25 -55.0625 C 78 -55.0625 79.019531 -55.082031 80.3125 -55.125 C 81.601562 -55.175781 82.894531 -55.25 84.1875 -55.34375 C 86.039062 -55.53125 87.265625 -56.203125 87.859375 -57.359375 C 88.460938 -58.515625 89.226562 -60.289062 90.15625 -62.6875 C 93.300781 -71.65625 96.328125 -79.257812 99.234375 -85.5 C 102.148438 -91.75 105.316406 -96.488281 108.734375 -99.71875 C 112.160156 -102.957031 116.09375 -104.578125 120.53125 -104.578125 C 124.039062 -104.578125 126.882812 -103.488281 129.0625 -101.3125 C 131.238281 -99.144531 132.328125 -95.613281 132.328125 -90.71875 C 132.328125 -85.71875 131.097656 -80.515625 128.640625 -75.109375 C 126.191406 -69.703125 122.796875 -64.734375 118.453125 -60.203125 C 114.109375 -55.671875 109.066406 -52.25 103.328125 -49.9375 C 100.648438 -48.820312 99.3125 -46.414062 99.3125 -42.71875 C 99.3125 -39.476562 100.257812 -36.703125 102.15625 -34.390625 C 104.050781 -32.085938 106.660156 -30.9375 109.984375 -30.9375 C 112.484375 -30.9375 114.957031 -31.535156 117.40625 -32.734375 C 119.863281 -33.929688 121.832031 -35.6875 123.3125 -38 Z M 105 -68.9375 C 103.882812 -65.425781 103.375 -63.207031 103.46875 -62.28125 C 103.5625 -61.351562 103.929688 -60.890625 104.578125 -60.890625 C 105.960938 -60.890625 107.507812 -61.722656 109.21875 -63.390625 C 110.9375 -65.054688 112.394531 -67.019531 113.59375 -69.28125 C 114.800781 -71.550781 115.40625 -73.515625 115.40625 -75.171875 C 115.40625 -77.484375 114.429688 -78.640625 112.484375 -78.640625 C 110.546875 -78.640625 109.019531 -77.644531 107.90625 -75.65625 C 106.800781 -73.675781 105.832031 -71.4375 105 -68.9375 Z M 105 -68.9375 "/></g></g><g style="fill:#000000;fill-opacity:1;"><g transform="translate(689.811195, 108.139664)"><path style="stroke:none" d="M 69.21875 -38 C 69.769531 -38.832031 70.644531 -39.132812 71.84375 -38.90625 C 73.050781 -38.675781 74.09375 -38.164062 74.96875 -37.375 C 75.84375 -36.59375 76.003906 -35.644531 75.453125 -34.53125 C 74.160156 -31.757812 72.472656 -28.894531 70.390625 -25.9375 C 68.304688 -22.976562 65.71875 -20.503906 62.625 -18.515625 C 59.53125 -16.523438 55.71875 -15.53125 51.1875 -15.53125 L 49.515625 -15.53125 C 46.097656 -10.8125 42.003906 -7.039062 37.234375 -4.21875 C 32.472656 -1.40625 27.503906 0 22.328125 0 C 16.128906 0 10.992188 -2.078125 6.921875 -6.234375 C 2.859375 -10.398438 0.828125 -16.085938 0.828125 -23.296875 C 0.828125 -28.472656 1.773438 -33.765625 3.671875 -39.171875 C 5.566406 -44.585938 8.222656 -49.582031 11.640625 -54.15625 C 15.066406 -58.738281 19.09375 -62.414062 23.71875 -65.1875 C 28.34375 -67.957031 33.425781 -69.34375 38.96875 -69.34375 C 42.757812 -69.34375 46.179688 -68.582031 49.234375 -67.0625 C 52.285156 -65.539062 54.710938 -63.019531 56.515625 -59.5 C 58.316406 -55.988281 59.21875 -51.320312 59.21875 -45.5 C 59.21875 -40.59375 58.523438 -35.828125 57.140625 -31.203125 L 58.109375 -31.203125 C 60.148438 -31.203125 62.09375 -31.734375 63.9375 -32.796875 C 65.789062 -33.859375 67.550781 -35.59375 69.21875 -38 Z M 30.234375 -28.71875 C 32.546875 -28.71875 34.578125 -29.410156 36.328125 -30.796875 C 38.085938 -32.179688 39.476562 -33.867188 40.5 -35.859375 C 41.519531 -37.847656 42.03125 -39.8125 42.03125 -41.75 C 42.03125 -43.78125 41.425781 -45.507812 40.21875 -46.9375 C 39.019531 -48.375 37.078125 -49.09375 34.390625 -49.09375 C 32.171875 -49.09375 30.207031 -48.445312 28.5 -47.15625 C 26.789062 -45.863281 25.453125 -44.222656 24.484375 -42.234375 C 23.515625 -40.242188 23.03125 -38.234375 23.03125 -36.203125 C 23.03125 -34.171875 23.582031 -32.414062 24.6875 -30.9375 C 25.800781 -29.457031 27.648438 -28.71875 30.234375 -28.71875 Z M 30.234375 -28.71875 "/></g></g><g style="fill:#000000;fill-opacity:1;"><g transform="translate(755.827605, 108.139664)"><path style="stroke:none" d="M 14.015625 0 C 8.828125 0 5.007812 -1.59375 2.5625 -4.78125 C 0.113281 -7.976562 -1.109375 -12.140625 -1.109375 -17.265625 C -1.109375 -22.398438 -0.09375 -27.925781 1.9375 -33.84375 C 3.144531 -37.351562 4.488281 -41.140625 5.96875 -45.203125 C 7.445312 -49.273438 9.0625 -53.71875 10.8125 -58.53125 C 8.78125 -58.53125 7.234375 -59.0625 6.171875 -60.125 C 5.109375 -61.1875 4.414062 -62.429688 4.09375 -63.859375 C 3.769531 -65.296875 3.769531 -66.546875 4.09375 -67.609375 C 4.414062 -68.679688 4.992188 -69.21875 5.828125 -69.21875 C 9.890625 -69.21875 13.078125 -70.347656 15.390625 -72.609375 C 17.703125 -74.878906 19.320312 -77.257812 20.25 -79.75 C 21.914062 -83.820312 23.535156 -86.390625 25.109375 -87.453125 C 26.679688 -88.515625 28.34375 -89.046875 30.09375 -89.046875 C 32.6875 -89.046875 34.304688 -87.957031 34.953125 -85.78125 C 35.597656 -83.613281 34.859375 -80.359375 32.734375 -76.015625 C 31.710938 -73.796875 31.15625 -72.109375 31.0625 -70.953125 C 30.976562 -69.796875 31.582031 -69.21875 32.875 -69.21875 L 40.078125 -69.21875 C 41.003906 -69.21875 41.601562 -68.566406 41.875 -67.265625 C 42.15625 -65.972656 42.132812 -64.492188 41.8125 -62.828125 C 41.488281 -61.160156 40.890625 -59.679688 40.015625 -58.390625 C 39.140625 -57.097656 38.007812 -56.453125 36.625 -56.453125 C 32.363281 -56.453125 29.21875 -56.289062 27.1875 -55.96875 C 25.15625 -55.644531 23.722656 -54.832031 22.890625 -53.53125 C 22.054688 -52.238281 21.175781 -50.019531 20.25 -46.875 C 18.769531 -42.070312 18.976562 -38.234375 20.875 -35.359375 C 22.769531 -32.492188 25.753906 -31.0625 29.828125 -31.0625 C 32.597656 -31.0625 35.066406 -31.6875 37.234375 -32.9375 C 39.410156 -34.1875 41.191406 -35.875 42.578125 -38 C 43.316406 -39.113281 44.265625 -39.507812 45.421875 -39.1875 C 46.578125 -38.863281 47.546875 -38.238281 48.328125 -37.3125 C 49.117188 -36.382812 49.285156 -35.457031 48.828125 -34.53125 C 47.992188 -32.957031 46.882812 -30.785156 45.5 -28.015625 C 44.113281 -25.242188 42.445312 -22.238281 40.5 -19 C 38.5625 -15.757812 36.296875 -12.707031 33.703125 -9.84375 C 31.117188 -6.976562 28.179688 -4.617188 24.890625 -2.765625 C 21.609375 -0.921875 17.984375 0 14.015625 0 Z M 14.015625 0 "/></g></g><g style="fill:#000000;fill-opacity:1;"><g transform="translate(795.215604, 108.139664)"><path style="stroke:none" d="M 14.015625 0 C 8.828125 0 5.007812 -1.59375 2.5625 -4.78125 C 0.113281 -7.976562 -1.109375 -12.140625 -1.109375 -17.265625 C -1.109375 -22.398438 -0.09375 -27.925781 1.9375 -33.84375 C 3.144531 -37.351562 4.488281 -41.140625 5.96875 -45.203125 C 7.445312 -49.273438 9.0625 -53.71875 10.8125 -58.53125 C 8.78125 -58.53125 7.234375 -59.0625 6.171875 -60.125 C 5.109375 -61.1875 4.414062 -62.429688 4.09375 -63.859375 C 3.769531 -65.296875 3.769531 -66.546875 4.09375 -67.609375 C 4.414062 -68.679688 4.992188 -69.21875 5.828125 -69.21875 C 9.890625 -69.21875 13.078125 -70.347656 15.390625 -72.609375 C 17.703125 -74.878906 19.320312 -77.257812 20.25 -79.75 C 21.914062 -83.820312 23.535156 -86.390625 25.109375 -87.453125 C 26.679688 -88.515625 28.34375 -89.046875 30.09375 -89.046875 C 32.6875 -89.046875 34.304688 -87.957031 34.953125 -85.78125 C 35.597656 -83.613281 34.859375 -80.359375 32.734375 -76.015625 C 31.710938 -73.796875 31.15625 -72.109375 31.0625 -70.953125 C 30.976562 -69.796875 31.582031 -69.21875 32.875 -69.21875 L 40.078125 -69.21875 C 41.003906 -69.21875 41.601562 -68.566406 41.875 -67.265625 C 42.15625 -65.972656 42.132812 -64.492188 41.8125 -62.828125 C 41.488281 -61.160156 40.890625 -59.679688 40.015625 -58.390625 C 39.140625 -57.097656 38.007812 -56.453125 36.625 -56.453125 C 32.363281 -56.453125 29.21875 -56.289062 27.1875 -55.96875 C 25.15625 -55.644531 23.722656 -54.832031 22.890625 -53.53125 C 22.054688 -52.238281 21.175781 -50.019531 20.25 -46.875 C 18.769531 -42.070312 18.976562 -38.234375 20.875 -35.359375 C 22.769531 -32.492188 25.753906 -31.0625 29.828125 -31.0625 C 32.597656 -31.0625 35.066406 -31.6875 37.234375 -32.9375 C 39.410156 -34.1875 41.191406 -35.875 42.578125 -38 C 43.316406 -39.113281 44.265625 -39.507812 45.421875 -39.1875 C 46.578125 -38.863281 47.546875 -38.238281 48.328125 -37.3125 C 49.117188 -36.382812 49.285156 -35.457031 48.828125 -34.53125 C 47.992188 -32.957031 46.882812 -30.785156 45.5 -28.015625 C 44.113281 -25.242188 42.445312 -22.238281 40.5 -19 C 38.5625 -15.757812 36.296875 -12.707031 33.703125 -9.84375 C 31.117188 -6.976562 28.179688 -4.617188 24.890625 -2.765625 C 21.609375 -0.921875 17.984375 0 14.015625 0 Z M 14.015625 0 "/></g></g><g style="fill:#000000;fill-opacity:1;"><g transform="translate(834.603525, 108.139664)"><path style="stroke:none" d="M 27.875 -75.03125 C 24.550781 -75.03125 21.6875 -75.75 19.28125 -77.1875 C 16.875 -78.625 15.671875 -81.191406 15.671875 -84.890625 C 15.671875 -89.785156 17.035156 -93.132812 19.765625 -94.9375 C 22.492188 -96.738281 25.753906 -97.640625 29.546875 -97.640625 C 33.054688 -97.640625 36.035156 -96.851562 38.484375 -95.28125 C 40.941406 -93.71875 41.984375 -90.757812 41.609375 -86.40625 C 41.242188 -82.15625 39.765625 -79.195312 37.171875 -77.53125 C 34.578125 -75.863281 31.476562 -75.03125 27.875 -75.03125 Z M 12.484375 0 C 7.859375 0 4.570312 -1.6875 2.625 -5.0625 C 0.6875 -8.4375 -0.28125 -12.53125 -0.28125 -17.34375 C -0.28125 -20.570312 0.0390625 -23.988281 0.6875 -27.59375 C 1.34375 -31.207031 2.175781 -34.675781 3.1875 -38 C 6.425781 -48.082031 9.570312 -55.828125 12.625 -61.234375 C 15.675781 -66.640625 19.1875 -69.34375 23.15625 -69.34375 C 26.300781 -69.34375 27.875 -67.265625 27.875 -63.109375 C 27.875 -60.335938 27.34375 -57.492188 26.28125 -54.578125 C 25.21875 -51.660156 24.175781 -48.789062 23.15625 -45.96875 C 22.144531 -43.15625 21.640625 -40.5 21.640625 -38 C 21.640625 -35.6875 22.21875 -33.953125 23.375 -32.796875 C 24.53125 -31.640625 26.03125 -31.0625 27.875 -31.0625 C 30 -31.0625 31.78125 -31.707031 33.21875 -33 C 34.65625 -34.300781 36.066406 -35.96875 37.453125 -38 C 38.191406 -39.113281 39.140625 -39.53125 40.296875 -39.25 C 41.453125 -38.976562 42.421875 -38.351562 43.203125 -37.375 C 43.992188 -36.40625 44.15625 -35.503906 43.6875 -34.671875 C 42.757812 -33.191406 41.671875 -31.066406 40.421875 -28.296875 C 39.179688 -25.523438 37.679688 -22.519531 35.921875 -19.28125 C 34.160156 -16.039062 32.148438 -12.960938 29.890625 -10.046875 C 27.628906 -7.140625 25.0625 -4.738281 22.1875 -2.84375 C 19.320312 -0.945312 16.085938 0 12.484375 0 Z M 12.484375 0 "/></g></g><g style="fill:#000000;fill-opacity:1;"><g transform="translate(868.721241, 108.139664)"><path style="stroke:none" d="M 26.078125 0 C 20.523438 0 15.96875 -1.242188 12.40625 -3.734375 C 8.851562 -6.234375 6.21875 -9.539062 4.5 -13.65625 C 2.789062 -17.769531 1.957031 -22.300781 2 -27.25 C 2.050781 -32.195312 2.910156 -37.144531 4.578125 -42.09375 C 6.242188 -47.039062 8.644531 -51.570312 11.78125 -55.6875 C 14.925781 -59.800781 18.738281 -63.101562 23.21875 -65.59375 C 27.707031 -68.09375 32.773438 -69.34375 38.421875 -69.34375 C 42.765625 -69.34375 46.300781 -68.535156 49.03125 -66.921875 C 51.757812 -65.304688 53.769531 -63.15625 55.0625 -60.46875 C 56.351562 -57.789062 57 -54.925781 57 -51.875 C 57 -48.539062 56.070312 -45.207031 54.21875 -41.875 C 52.375 -38.550781 49.785156 -35.800781 46.453125 -33.625 C 43.128906 -31.457031 39.203125 -30.375 34.671875 -30.375 C 32.734375 -30.375 30.835938 -30.507812 28.984375 -30.78125 C 27.140625 -31.0625 25.429688 -31.664062 23.859375 -32.59375 C 23.390625 -32.875 22.878906 -32.894531 22.328125 -32.65625 C 21.773438 -32.425781 21.5 -31.851562 21.5 -30.9375 C 21.5 -28.53125 22.90625 -26.703125 25.71875 -25.453125 C 28.539062 -24.203125 31.941406 -23.578125 35.921875 -23.578125 C 40.640625 -23.578125 45.515625 -24.78125 50.546875 -27.1875 C 55.585938 -29.59375 59.679688 -33.195312 62.828125 -38 C 63.566406 -39.113281 64.535156 -39.507812 65.734375 -39.1875 C 66.941406 -38.863281 67.9375 -38.238281 68.71875 -37.3125 C 69.507812 -36.382812 69.628906 -35.457031 69.078125 -34.53125 C 62.972656 -23.25 56.289062 -14.671875 49.03125 -8.796875 C 41.769531 -2.929688 34.117188 0 26.078125 0 Z M 31.0625 -40.78125 C 33.75 -40.78125 35.851562 -41.632812 37.375 -43.34375 C 38.90625 -45.050781 39.671875 -46.785156 39.671875 -48.546875 C 39.671875 -50.117188 39.140625 -51.457031 38.078125 -52.5625 C 37.015625 -53.675781 35.414062 -54.234375 33.28125 -54.234375 C 30.601562 -54.234375 28.476562 -53.398438 26.90625 -51.734375 C 25.332031 -50.066406 24.546875 -48.3125 24.546875 -46.46875 C 24.546875 -44.988281 25.078125 -43.671875 26.140625 -42.515625 C 27.203125 -41.359375 28.84375 -40.78125 31.0625 -40.78125 Z M 31.0625 -40.78125 "/></g></g><g style="fill:#000000;fill-opacity:1;"><g transform="translate(928.357977, 108.139664)"><path style="stroke:none" d="M 57 -38 C 57.738281 -39.113281 58.6875 -39.507812 59.84375 -39.1875 C 61 -38.863281 61.96875 -38.238281 62.75 -37.3125 C 63.539062 -36.382812 63.707031 -35.457031 63.25 -34.53125 C 62.507812 -32.957031 61.421875 -30.757812 59.984375 -27.9375 C 58.554688 -25.125 56.753906 -22.117188 54.578125 -18.921875 C 52.398438 -15.734375 49.765625 -12.707031 46.671875 -9.84375 C 43.578125 -6.976562 40.015625 -4.644531 35.984375 -2.84375 C 31.960938 -1.039062 27.363281 -0.140625 22.1875 -0.140625 C 16.082031 -0.140625 11.25 -1.429688 7.6875 -4.015625 C 4.132812 -6.609375 1.707031 -9.890625 0.40625 -13.859375 C -0.882812 -17.835938 -1.25 -22 -0.6875 -26.34375 C -0.132812 -30.695312 1.15625 -34.582031 3.1875 -38 L 3.75 -38.84375 C 6.238281 -42.164062 8.707031 -45.789062 11.15625 -49.71875 C 13.613281 -53.65625 16.132812 -57.351562 18.71875 -60.8125 C 21.3125 -64.28125 23.992188 -67.144531 26.765625 -69.40625 C 29.546875 -71.675781 32.414062 -72.8125 35.375 -72.8125 C 39.71875 -72.8125 42.925781 -71.796875 45 -69.765625 C 47.082031 -67.734375 48.078125 -65.609375 47.984375 -63.390625 C 47.984375 -62.273438 47.5 -61.347656 46.53125 -60.609375 C 45.5625 -59.867188 44.40625 -59.195312 43.0625 -58.59375 C 41.726562 -58 40.550781 -57.257812 39.53125 -56.375 C 38.507812 -55.5 38 -54.367188 38 -52.984375 C 38 -52.148438 38.644531 -50.484375 39.9375 -47.984375 C 41.238281 -45.492188 42.628906 -42.695312 44.109375 -39.59375 C 45.585938 -36.5 46.601562 -33.519531 47.15625 -30.65625 C 49.28125 -30.75 51.101562 -31.488281 52.625 -32.875 C 54.15625 -34.257812 55.613281 -35.96875 57 -38 Z M 17.203125 -28.71875 C 20.253906 -28.71875 22.609375 -29.6875 24.265625 -31.625 C 25.929688 -33.5625 26.765625 -35.96875 26.765625 -38.84375 C 26.765625 -40.5 26.507812 -42.207031 26 -43.96875 C 25.5 -45.726562 24.738281 -47.53125 23.71875 -49.375 C 22.789062 -51.226562 21.679688 -51.226562 20.390625 -49.375 C 18.628906 -46.789062 16.753906 -44.179688 14.765625 -41.546875 C 12.785156 -38.910156 11.007812 -36.570312 9.4375 -34.53125 C 9.4375 -32.875 10.148438 -31.488281 11.578125 -30.375 C 13.015625 -29.269531 14.890625 -28.71875 17.203125 -28.71875 Z M 17.203125 -28.71875 "/></g></g></g></g></g></g></svg>