<svg xmlns="http://www.w3.org/2000/svg" xmlns:xlink="http://www.w3.org/1999/xlink" width="783" zoomAndPan="magnify" viewBox="0 0 587.25 269.25" height="359" preserveAspectRatio="xMidYMid meet" version="1.2"><defs><clipPath id="e3b19bbb7b"><rect x="0" width="520" y="0" height="105"/></clipPath></defs><g id="8aec08669a"><g transform="matrix(1,0,0,1,37,81)"><g clip-path="url(#e3b19bbb7b)"><g style="fill:#ffffff;fill-opacity:1;"><g transform="translate(0.503647, 66.487469)"><path style="stroke:none" d="M 20.3125 0.875 C 16.894531 0.875 13.835938 0.148438 11.140625 -1.296875 C 8.441406 -2.742188 6.304688 -5 4.734375 -8.0625 C 3.171875 -11.125 2.390625 -15.066406 2.390625 -19.890625 C 2.390625 -24.273438 3.144531 -28.453125 4.65625 -32.421875 C 6.175781 -36.398438 8.257812 -39.929688 10.90625 -43.015625 C 13.5625 -46.109375 16.585938 -48.546875 19.984375 -50.328125 C 23.390625 -52.109375 26.945312 -53 30.65625 -53 C 35.238281 -53 38.675781 -52.054688 40.96875 -50.171875 C 43.257812 -48.296875 44.40625 -45.796875 44.40625 -42.671875 C 44.40625 -40.546875 43.992188 -38.585938 43.171875 -36.796875 C 42.347656 -35.015625 41.273438 -33.460938 39.953125 -32.140625 C 38.628906 -30.816406 37.21875 -29.789062 35.71875 -29.0625 C 34.226562 -28.34375 32.804688 -27.984375 31.453125 -27.984375 C 30.441406 -27.984375 29.691406 -28.285156 29.203125 -28.890625 C 28.722656 -29.492188 28.675781 -30.179688 29.0625 -30.953125 C 30.945312 -34.515625 31.585938 -37.09375 30.984375 -38.6875 C 30.378906 -40.28125 29.066406 -41.078125 27.046875 -41.078125 C 24.878906 -41.078125 22.914062 -40.398438 21.15625 -39.046875 C 19.394531 -37.703125 18.003906 -35.957031 16.984375 -33.8125 C 15.972656 -31.664062 15.46875 -29.382812 15.46875 -26.96875 C 15.46875 -24.800781 15.984375 -22.828125 17.015625 -21.046875 C 18.054688 -19.265625 19.625 -17.828125 21.71875 -16.734375 C 23.820312 -15.648438 26.460938 -15.109375 29.640625 -15.109375 C 31.910156 -15.109375 34.210938 -15.445312 36.546875 -16.125 C 38.890625 -16.800781 40.664062 -18.03125 41.875 -19.8125 C 42.257812 -20.394531 42.75 -20.597656 43.34375 -20.421875 C 43.945312 -20.253906 44.453125 -19.929688 44.859375 -19.453125 C 45.273438 -18.972656 45.363281 -18.488281 45.125 -18 C 42.082031 -11.882812 38.582031 -7.207031 34.625 -3.96875 C 30.675781 -0.738281 25.90625 0.875 20.3125 0.875 Z M 20.3125 0.875 "/></g></g><g style="fill:#ffffff;fill-opacity:1;"><g transform="translate(40.704674, 66.487469)"><path style="stroke:none" d="M 7.671875 0 C 5.210938 0 3.351562 -1.007812 2.09375 -3.03125 C 0.84375 -5.0625 0.21875 -7.691406 0.21875 -10.921875 C 0.21875 -12.941406 0.46875 -15.097656 0.96875 -17.390625 C 1.476562 -19.679688 2.226562 -21.9375 3.21875 -24.15625 C 4.207031 -26.375 5.445312 -28.382812 6.9375 -30.1875 C 8.4375 -32 10.171875 -33.445312 12.140625 -34.53125 C 14.117188 -35.613281 16.363281 -36.15625 18.875 -36.15625 C 20.320312 -36.15625 21.441406 -36.019531 22.234375 -35.75 C 23.023438 -35.488281 23.625 -35.164062 24.03125 -34.78125 C 24.445312 -34.394531 24.800781 -34.066406 25.09375 -33.796875 C 25.382812 -33.535156 25.769531 -33.40625 26.25 -33.40625 C 27.070312 -33.40625 27.734375 -33.632812 28.234375 -34.09375 C 28.742188 -34.550781 29.3125 -35.007812 29.9375 -35.46875 C 30.5625 -35.925781 31.429688 -36.15625 32.546875 -36.15625 C 33.503906 -36.15625 34.164062 -35.910156 34.53125 -35.421875 C 34.894531 -34.941406 35.078125 -34.296875 35.078125 -33.484375 C 35.078125 -32.128906 34.703125 -30.789062 33.953125 -29.46875 C 33.203125 -28.144531 32.414062 -26.421875 31.59375 -24.296875 C 30.394531 -21.640625 29.953125 -19.613281 30.265625 -18.21875 C 30.578125 -16.820312 31.53125 -16.125 33.125 -16.125 C 34.375 -16.125 35.457031 -16.445312 36.375 -17.09375 C 37.289062 -17.75 38.109375 -18.65625 38.828125 -19.8125 C 39.210938 -20.394531 39.707031 -20.597656 40.3125 -20.421875 C 40.914062 -20.253906 41.421875 -19.929688 41.828125 -19.453125 C 42.242188 -18.972656 42.328125 -18.488281 42.078125 -18 C 41.210938 -16.3125 40.285156 -14.441406 39.296875 -12.390625 C 38.304688 -10.347656 37.207031 -8.382812 36 -6.5 C 34.800781 -4.625 33.429688 -3.070312 31.890625 -1.84375 C 30.347656 -0.613281 28.5625 0 26.53125 0 C 24.03125 0 22.257812 -1.007812 21.21875 -3.03125 C 20.1875 -5.0625 19.882812 -7.570312 20.3125 -10.5625 L 20.03125 -10.5625 C 18.582031 -7.613281 16.796875 -5.113281 14.671875 -3.0625 C 12.554688 -1.019531 10.222656 0 7.671875 0 Z M 14.890625 -14.96875 C 16.148438 -14.96875 17.25 -15.328125 18.1875 -16.046875 C 19.125 -16.773438 19.859375 -17.65625 20.390625 -18.6875 C 20.921875 -19.726562 21.1875 -20.753906 21.1875 -21.765625 C 21.1875 -22.972656 20.847656 -23.910156 20.171875 -24.578125 C 19.492188 -25.253906 18.578125 -25.59375 17.421875 -25.59375 C 16.171875 -25.59375 15.085938 -25.253906 14.171875 -24.578125 C 13.253906 -23.910156 12.539062 -23.054688 12.03125 -22.015625 C 11.53125 -20.984375 11.28125 -19.9375 11.28125 -18.875 C 11.28125 -17.664062 11.601562 -16.710938 12.25 -16.015625 C 12.90625 -15.316406 13.785156 -14.96875 14.890625 -14.96875 Z M 14.890625 -14.96875 "/></g></g><g style="fill:#ffffff;fill-opacity:1;"><g transform="translate(77.868934, 66.487469)"><path style="stroke:none" d="M 30.234375 -19.8125 C 30.617188 -20.394531 31.125 -20.597656 31.75 -20.421875 C 32.375 -20.253906 32.890625 -19.929688 33.296875 -19.453125 C 33.710938 -18.972656 33.773438 -18.488281 33.484375 -18 C 32.992188 -17.226562 32.410156 -16.109375 31.734375 -14.640625 C 31.066406 -13.171875 30.257812 -11.601562 29.3125 -9.9375 C 28.375 -8.28125 27.28125 -6.691406 26.03125 -5.171875 C 24.78125 -3.648438 23.367188 -2.40625 21.796875 -1.4375 C 20.234375 -0.476562 18.460938 0 16.484375 0 C 14.503906 0 12.9375 -0.367188 11.78125 -1.109375 C 10.625 -1.859375 9.789062 -2.820312 9.28125 -4 C 8.78125 -5.1875 8.53125 -6.382812 8.53125 -7.59375 C 8.53125 -9.28125 8.78125 -10.941406 9.28125 -12.578125 C 9.789062 -14.222656 10.382812 -15.789062 11.0625 -17.28125 C 11.738281 -18.78125 12.328125 -20.15625 12.828125 -21.40625 C 13.335938 -22.65625 13.59375 -23.71875 13.59375 -24.59375 C 13.59375 -24.976562 13.316406 -25.539062 12.765625 -26.28125 C 12.210938 -27.03125 11.210938 -27.671875 9.765625 -28.203125 C 9.328125 -27.234375 8.804688 -26.109375 8.203125 -24.828125 C 7.597656 -23.554688 6.992188 -22.304688 6.390625 -21.078125 C 5.796875 -19.847656 5.304688 -18.820312 4.921875 -18 C 4.628906 -17.375 4.15625 -17.144531 3.5 -17.3125 C 2.851562 -17.488281 2.3125 -17.835938 1.875 -18.359375 C 1.445312 -18.890625 1.375 -19.375 1.65625 -19.8125 C 2.332031 -20.78125 3.082031 -22.191406 3.90625 -24.046875 C 4.726562 -25.898438 5.453125 -27.644531 6.078125 -29.28125 C 5.347656 -29.519531 4.765625 -29.929688 4.328125 -30.515625 C 3.898438 -31.097656 3.6875 -32.039062 3.6875 -33.34375 C 3.6875 -34.351562 3.953125 -35.347656 4.484375 -36.328125 C 5.015625 -37.316406 5.757812 -38.148438 6.71875 -38.828125 C 7.6875 -39.503906 8.820312 -39.84375 10.125 -39.84375 C 12.382812 -39.84375 14.5625 -39.40625 16.65625 -38.53125 C 18.757812 -37.664062 20.484375 -36.570312 21.828125 -35.25 C 23.179688 -33.925781 23.859375 -32.613281 23.859375 -31.3125 C 23.859375 -29.957031 23.601562 -28.675781 23.09375 -27.46875 C 22.59375 -26.269531 22.078125 -25.039062 21.546875 -23.78125 C 21.015625 -22.53125 20.75 -21.160156 20.75 -19.671875 C 20.75 -18.660156 21.085938 -17.816406 21.765625 -17.140625 C 22.441406 -16.460938 23.597656 -16.125 25.234375 -16.125 C 26.347656 -16.125 27.273438 -16.472656 28.015625 -17.171875 C 28.765625 -17.867188 29.503906 -18.75 30.234375 -19.8125 Z M 30.234375 -19.8125 "/></g></g><g style="fill:#ffffff;fill-opacity:1;"><g transform="translate(106.429015, 66.487469)"><path style="stroke:none" d="M 29.71875 -19.8125 C 30.101562 -20.394531 30.597656 -20.597656 31.203125 -20.421875 C 31.804688 -20.253906 32.3125 -19.929688 32.71875 -19.453125 C 33.132812 -18.972656 33.21875 -18.488281 32.96875 -18 C 32.582031 -17.1875 32.015625 -16.039062 31.265625 -14.5625 C 30.523438 -13.09375 29.585938 -11.523438 28.453125 -9.859375 C 27.316406 -8.203125 25.941406 -6.625 24.328125 -5.125 C 22.710938 -3.632812 20.859375 -2.421875 18.765625 -1.484375 C 16.671875 -0.546875 14.269531 -0.078125 11.5625 -0.078125 C 8.382812 -0.078125 5.867188 -0.75 4.015625 -2.09375 C 2.160156 -3.445312 0.894531 -5.160156 0.21875 -7.234375 C -0.457031 -9.304688 -0.648438 -11.472656 -0.359375 -13.734375 C -0.0664062 -16.003906 0.601562 -18.03125 1.65625 -19.8125 L 1.953125 -20.25 C 3.253906 -21.976562 4.539062 -23.867188 5.8125 -25.921875 C 7.09375 -27.972656 8.40625 -29.898438 9.75 -31.703125 C 11.101562 -33.515625 12.503906 -35.007812 13.953125 -36.1875 C 15.398438 -37.375 16.894531 -37.96875 18.4375 -37.96875 C 20.707031 -37.96875 22.382812 -37.4375 23.46875 -36.375 C 24.550781 -35.3125 25.066406 -34.203125 25.015625 -33.046875 C 25.015625 -32.460938 24.757812 -31.976562 24.25 -31.59375 C 23.75 -31.207031 23.148438 -30.859375 22.453125 -30.546875 C 21.753906 -30.234375 21.140625 -29.847656 20.609375 -29.390625 C 20.078125 -28.929688 19.8125 -28.34375 19.8125 -27.625 C 19.8125 -27.1875 20.148438 -26.316406 20.828125 -25.015625 C 21.503906 -23.710938 22.226562 -22.253906 23 -20.640625 C 23.769531 -19.023438 24.300781 -17.472656 24.59375 -15.984375 C 25.695312 -16.023438 26.644531 -16.40625 27.4375 -17.125 C 28.238281 -17.851562 29 -18.75 29.71875 -19.8125 Z M 8.96875 -14.96875 C 10.5625 -14.96875 11.789062 -15.472656 12.65625 -16.484375 C 13.519531 -17.492188 13.953125 -18.75 13.953125 -20.25 C 13.953125 -21.113281 13.816406 -22.003906 13.546875 -22.921875 C 13.285156 -23.835938 12.890625 -24.78125 12.359375 -25.75 C 11.878906 -26.707031 11.300781 -26.707031 10.625 -25.75 C 9.707031 -24.394531 8.726562 -23.03125 7.6875 -21.65625 C 6.65625 -20.28125 5.734375 -19.0625 4.921875 -18 C 4.921875 -17.132812 5.289062 -16.410156 6.03125 -15.828125 C 6.78125 -15.253906 7.757812 -14.96875 8.96875 -14.96875 Z M 8.96875 -14.96875 "/></g></g><g style="fill:#ffffff;fill-opacity:1;"><g transform="translate(134.410669, 66.487469)"><path style="stroke:none" d=""/></g></g><g style="fill:#ffffff;fill-opacity:1;"><g transform="translate(160.440104, 66.487469)"><path style="stroke:none" d="M 7.671875 0 C 5.210938 0 3.351562 -1.007812 2.09375 -3.03125 C 0.84375 -5.0625 0.21875 -7.691406 0.21875 -10.921875 C 0.21875 -12.941406 0.46875 -15.097656 0.96875 -17.390625 C 1.476562 -19.679688 2.226562 -21.9375 3.21875 -24.15625 C 4.207031 -26.375 5.445312 -28.382812 6.9375 -30.1875 C 8.4375 -32 10.171875 -33.445312 12.140625 -34.53125 C 14.117188 -35.613281 16.363281 -36.15625 18.875 -36.15625 C 20.320312 -36.15625 21.441406 -36.019531 22.234375 -35.75 C 23.023438 -35.488281 23.625 -35.164062 24.03125 -34.78125 C 24.445312 -34.394531 24.800781 -34.066406 25.09375 -33.796875 C 25.382812 -33.535156 25.769531 -33.40625 26.25 -33.40625 C 27.070312 -33.40625 27.734375 -33.632812 28.234375 -34.09375 C 28.742188 -34.550781 29.3125 -35.007812 29.9375 -35.46875 C 30.5625 -35.925781 31.429688 -36.15625 32.546875 -36.15625 C 33.503906 -36.15625 34.164062 -35.910156 34.53125 -35.421875 C 34.894531 -34.941406 35.078125 -34.296875 35.078125 -33.484375 C 35.078125 -32.128906 34.703125 -30.789062 33.953125 -29.46875 C 33.203125 -28.144531 32.414062 -26.421875 31.59375 -24.296875 C 30.394531 -21.640625 29.953125 -19.613281 30.265625 -18.21875 C 30.578125 -16.820312 31.53125 -16.125 33.125 -16.125 C 34.375 -16.125 35.457031 -16.445312 36.375 -17.09375 C 37.289062 -17.75 38.109375 -18.65625 38.828125 -19.8125 C 39.210938 -20.394531 39.707031 -20.597656 40.3125 -20.421875 C 40.914062 -20.253906 41.421875 -19.929688 41.828125 -19.453125 C 42.242188 -18.972656 42.328125 -18.488281 42.078125 -18 C 41.210938 -16.3125 40.285156 -14.441406 39.296875 -12.390625 C 38.304688 -10.347656 37.207031 -8.382812 36 -6.5 C 34.800781 -4.625 33.429688 -3.070312 31.890625 -1.84375 C 30.347656 -0.613281 28.5625 0 26.53125 0 C 24.03125 0 22.257812 -1.007812 21.21875 -3.03125 C 20.1875 -5.0625 19.882812 -7.570312 20.3125 -10.5625 L 20.03125 -10.5625 C 18.582031 -7.613281 16.796875 -5.113281 14.671875 -3.0625 C 12.554688 -1.019531 10.222656 0 7.671875 0 Z M 14.890625 -14.96875 C 16.148438 -14.96875 17.25 -15.328125 18.1875 -16.046875 C 19.125 -16.773438 19.859375 -17.65625 20.390625 -18.6875 C 20.921875 -19.726562 21.1875 -20.753906 21.1875 -21.765625 C 21.1875 -22.972656 20.847656 -23.910156 20.171875 -24.578125 C 19.492188 -25.253906 18.578125 -25.59375 17.421875 -25.59375 C 16.171875 -25.59375 15.085938 -25.253906 14.171875 -24.578125 C 13.253906 -23.910156 12.539062 -23.054688 12.03125 -22.015625 C 11.53125 -20.984375 11.28125 -19.9375 11.28125 -18.875 C 11.28125 -17.664062 11.601562 -16.710938 12.25 -16.015625 C 12.90625 -15.316406 13.785156 -14.96875 14.890625 -14.96875 Z M 14.890625 -14.96875 "/></g></g><g style="fill:#ffffff;fill-opacity:1;"><g transform="translate(197.604365, 66.487469)"><path style="stroke:none" d="M 4.5625 0 C 2.875 0 1.570312 -0.503906 0.65625 -1.515625 C -0.257812 -2.523438 -0.71875 -3.78125 -0.71875 -5.28125 C -0.71875 -6.96875 -0.523438 -9.078125 -0.140625 -11.609375 C 0.242188 -14.140625 0.84375 -16.875 1.65625 -19.8125 C 2.476562 -22.65625 3.382812 -25.316406 4.375 -27.796875 C 5.363281 -30.285156 6.375 -32.300781 7.40625 -33.84375 C 8.445312 -35.382812 9.425781 -36.15625 10.34375 -36.15625 C 11.300781 -36.15625 11.9375 -35.878906 12.25 -35.328125 C 12.570312 -34.773438 12.734375 -34.132812 12.734375 -33.40625 C 12.734375 -32.007812 13.066406 -31.140625 13.734375 -30.796875 C 14.410156 -30.460938 15.328125 -30.875 16.484375 -32.03125 C 17.835938 -33.332031 19.234375 -34.34375 20.671875 -35.0625 C 22.117188 -35.789062 23.640625 -36.15625 25.234375 -36.15625 C 27.453125 -36.15625 29.09375 -35.503906 30.15625 -34.203125 C 31.21875 -32.898438 31.75 -31.332031 31.75 -29.5 C 31.75 -28.25 31.554688 -27.101562 31.171875 -26.0625 C 30.785156 -25.03125 30.398438 -24.019531 30.015625 -23.03125 C 29.628906 -22.039062 29.4375 -20.941406 29.4375 -19.734375 C 29.4375 -17.328125 30.59375 -16.125 32.90625 -16.125 C 34.007812 -16.125 34.9375 -16.472656 35.6875 -17.171875 C 36.4375 -17.867188 37.171875 -18.75 37.890625 -19.8125 C 38.273438 -20.394531 38.78125 -20.597656 39.40625 -20.421875 C 40.03125 -20.253906 40.546875 -19.929688 40.953125 -19.453125 C 41.367188 -18.972656 41.429688 -18.488281 41.140625 -18 C 40.660156 -17.226562 40.082031 -16.109375 39.40625 -14.640625 C 38.726562 -13.171875 37.921875 -11.601562 36.984375 -9.9375 C 36.046875 -8.28125 34.945312 -6.691406 33.6875 -5.171875 C 32.4375 -3.648438 31.03125 -2.40625 29.46875 -1.4375 C 27.90625 -0.476562 26.132812 0 24.15625 0 C 21.882812 0 20.289062 -0.742188 19.375 -2.234375 C 18.457031 -3.734375 18 -5.492188 18 -7.515625 C 18 -9.347656 18.253906 -11.097656 18.765625 -12.765625 C 19.273438 -14.429688 19.78125 -15.945312 20.28125 -17.3125 C 20.789062 -18.6875 21.046875 -19.859375 21.046875 -20.828125 C 21.046875 -21.648438 20.789062 -22.273438 20.28125 -22.703125 C 19.78125 -23.140625 19.117188 -23.359375 18.296875 -23.359375 C 16.898438 -23.359375 15.609375 -22.765625 14.421875 -21.578125 C 13.242188 -20.398438 12.289062 -18.867188 11.5625 -16.984375 C 10.84375 -15.109375 10.484375 -13.085938 10.484375 -10.921875 L 10.484375 -7.671875 C 10.484375 -6.460938 10.335938 -5.265625 10.046875 -4.078125 C 9.765625 -2.898438 9.203125 -1.925781 8.359375 -1.15625 C 7.515625 -0.382812 6.25 0 4.5625 0 Z M 4.5625 0 "/></g></g><g style="fill:#ffffff;fill-opacity:1;"><g transform="translate(233.828668, 66.487469)"><path style="stroke:none" d="M 8.453125 0 C 5.609375 0 3.523438 -0.984375 2.203125 -2.953125 C 0.878906 -4.929688 0.21875 -7.367188 0.21875 -10.265625 C 0.21875 -12.960938 0.601562 -15.804688 1.375 -18.796875 C 2.144531 -21.785156 3.3125 -24.59375 4.875 -27.21875 C 6.445312 -29.851562 8.398438 -32 10.734375 -33.65625 C 13.078125 -35.320312 15.789062 -36.15625 18.875 -36.15625 C 20.320312 -36.15625 21.441406 -35.984375 22.234375 -35.640625 C 23.023438 -35.304688 23.625 -34.910156 24.03125 -34.453125 C 24.445312 -33.992188 24.800781 -33.582031 25.09375 -33.21875 C 25.382812 -32.863281 25.769531 -32.6875 26.25 -32.6875 C 26.632812 -32.6875 26.945312 -33.117188 27.1875 -33.984375 C 27.425781 -34.847656 27.785156 -36.132812 28.265625 -37.84375 C 28.753906 -39.5625 29.503906 -41.648438 30.515625 -44.109375 C 31.429688 -46.328125 32.332031 -48 33.21875 -49.125 C 34.113281 -50.257812 34.972656 -51.019531 35.796875 -51.40625 C 36.617188 -51.800781 37.390625 -52 38.109375 -52 C 39.359375 -52 40.1875 -51.382812 40.59375 -50.15625 C 41.007812 -48.925781 40.734375 -47.273438 39.765625 -45.203125 L 31.59375 -24.296875 C 30.394531 -21.640625 29.953125 -19.613281 30.265625 -18.21875 C 30.578125 -16.820312 31.53125 -16.125 33.125 -16.125 C 34.375 -16.125 35.457031 -16.445312 36.375 -17.09375 C 37.289062 -17.75 38.109375 -18.65625 38.828125 -19.8125 C 39.210938 -20.394531 39.707031 -20.597656 40.3125 -20.421875 C 40.914062 -20.253906 41.421875 -19.929688 41.828125 -19.453125 C 42.242188 -18.972656 42.328125 -18.488281 42.078125 -18 C 41.210938 -16.3125 40.285156 -14.441406 39.296875 -12.390625 C 38.304688 -10.347656 37.207031 -8.382812 36 -6.5 C 34.800781 -4.625 33.429688 -3.070312 31.890625 -1.84375 C 30.347656 -0.613281 28.5625 0 26.53125 0 C 24.21875 0 22.503906 -1.007812 21.390625 -3.03125 C 20.285156 -5.0625 19.925781 -7.570312 20.3125 -10.5625 L 20.03125 -10.5625 C 18.53125 -7.613281 16.78125 -5.113281 14.78125 -3.0625 C 12.78125 -1.019531 10.671875 0 8.453125 0 Z M 15.046875 -14.96875 C 16.242188 -14.96875 17.300781 -15.328125 18.21875 -16.046875 C 19.132812 -16.773438 19.859375 -17.65625 20.390625 -18.6875 C 20.921875 -19.726562 21.1875 -20.753906 21.1875 -21.765625 C 21.1875 -22.828125 20.875 -23.726562 20.25 -24.46875 C 19.625 -25.21875 18.609375 -25.59375 17.203125 -25.59375 C 16.046875 -25.59375 15.019531 -25.253906 14.125 -24.578125 C 13.238281 -23.910156 12.539062 -23.054688 12.03125 -22.015625 C 11.53125 -20.984375 11.28125 -19.9375 11.28125 -18.875 C 11.28125 -17.8125 11.566406 -16.894531 12.140625 -16.125 C 12.722656 -15.351562 13.691406 -14.96875 15.046875 -14.96875 Z M 15.046875 -14.96875 "/></g></g><g style="fill:#ffffff;fill-opacity:1;"><g transform="translate(270.992929, 66.487469)"><path style="stroke:none" d=""/></g></g><g style="fill:#ffffff;fill-opacity:1;"><g transform="translate(297.022364, 66.487469)"><path style="stroke:none" d="M 64.28125 -19.8125 C 64.664062 -20.394531 65.171875 -20.597656 65.796875 -20.421875 C 66.429688 -20.253906 66.953125 -19.929688 67.359375 -19.453125 C 67.765625 -18.972656 67.828125 -18.488281 67.546875 -18 C 67.054688 -17.1875 66.460938 -16.054688 65.765625 -14.609375 C 65.066406 -13.160156 64.210938 -11.601562 63.203125 -9.9375 C 62.191406 -8.28125 61.007812 -6.691406 59.65625 -5.171875 C 58.3125 -3.648438 56.769531 -2.40625 55.03125 -1.4375 C 53.289062 -0.476562 51.363281 0 49.25 0 C 46.6875 0 44.632812 -0.742188 43.09375 -2.234375 C 41.550781 -3.734375 40.78125 -5.878906 40.78125 -8.671875 C 40.78125 -10.265625 40.890625 -11.960938 41.109375 -13.765625 C 41.328125 -15.578125 41.796875 -17.566406 42.515625 -19.734375 L 42.59375 -20.03125 C 43.03125 -21.425781 43.085938 -22.363281 42.765625 -22.84375 C 42.453125 -23.332031 41.847656 -23.578125 40.953125 -23.578125 C 40.066406 -23.578125 39 -23.578125 37.75 -23.578125 C 37.21875 -23.578125 36.695312 -23.503906 36.1875 -23.359375 C 35.6875 -23.210938 35.171875 -22.65625 34.640625 -21.6875 C 34.546875 -21.5 34.445312 -21.296875 34.34375 -21.078125 C 34.25 -20.859375 34.15625 -20.65625 34.0625 -20.46875 C 33.625 -19.457031 33.222656 -18.539062 32.859375 -17.71875 C 32.503906 -16.894531 32.207031 -16.21875 31.96875 -15.6875 C 29.3125 -10 26.085938 -5.457031 22.296875 -2.0625 C 18.515625 1.332031 14.046875 3.03125 8.890625 3.03125 C 6.097656 3.03125 3.769531 2.441406 1.90625 1.265625 C 0.0507812 0.0859375 -1.328125 -1.4375 -2.234375 -3.3125 C -3.148438 -5.195312 -3.609375 -7.128906 -3.609375 -9.109375 C -3.609375 -11.085938 -3.210938 -12.976562 -2.421875 -14.78125 C -1.628906 -16.59375 -0.507812 -18.0625 0.9375 -19.1875 C 2.382812 -20.320312 4.070312 -20.890625 6 -20.890625 C 6.726562 -20.890625 7.09375 -20.601562 7.09375 -20.03125 C 7.09375 -18.4375 7.773438 -17.144531 9.140625 -16.15625 C 10.515625 -15.164062 12.191406 -14.671875 14.171875 -14.671875 C 15.859375 -14.671875 17.59375 -15.09375 19.375 -15.9375 C 21.164062 -16.78125 22.851562 -18.117188 24.4375 -19.953125 C 26.03125 -21.785156 27.378906 -24.148438 28.484375 -27.046875 C 29.359375 -29.304688 30.320312 -31.703125 31.375 -34.234375 C 32.4375 -36.765625 33.523438 -39.429688 34.640625 -42.234375 C 32.367188 -42.859375 30.253906 -42.84375 28.296875 -42.1875 C 26.347656 -41.539062 24.785156 -40.429688 23.609375 -38.859375 C 22.429688 -37.296875 21.84375 -35.476562 21.84375 -33.40625 C 21.84375 -32.394531 22.101562 -31.539062 22.625 -30.84375 C 23.15625 -30.144531 23.8125 -29.796875 24.59375 -29.796875 C 24.925781 -29.023438 24.945312 -28.09375 24.65625 -27 C 24.363281 -25.914062 23.796875 -24.878906 22.953125 -23.890625 C 22.109375 -22.910156 21.023438 -22.082031 19.703125 -21.40625 C 18.378906 -20.726562 16.847656 -20.390625 15.109375 -20.390625 C 13.140625 -20.390625 11.476562 -20.882812 10.125 -21.875 C 8.769531 -22.863281 7.753906 -24.175781 7.078125 -25.8125 C 6.410156 -27.457031 6.078125 -29.191406 6.078125 -31.015625 C 6.078125 -34.109375 6.726562 -37.023438 8.03125 -39.765625 C 9.332031 -42.515625 11.1875 -44.9375 13.59375 -47.03125 C 16 -49.132812 18.828125 -50.785156 22.078125 -51.984375 C 25.335938 -53.191406 28.921875 -53.796875 32.828125 -53.796875 C 37.703125 -53.796875 40.875 -52.722656 42.34375 -50.578125 C 43.8125 -48.429688 43.847656 -45.550781 42.453125 -41.9375 C 41.429688 -38.757812 40.25 -35.484375 38.90625 -32.109375 C 38.90625 -32.054688 38.878906 -32.007812 38.828125 -31.96875 C 38.296875 -30.5625 38.25 -29.664062 38.6875 -29.28125 C 39.125 -28.894531 39.65625 -28.703125 40.28125 -28.703125 C 40.664062 -28.703125 41.191406 -28.710938 41.859375 -28.734375 C 42.535156 -28.765625 43.210938 -28.804688 43.890625 -28.859375 C 44.859375 -28.953125 45.5 -29.300781 45.8125 -29.90625 C 46.125 -30.507812 46.519531 -31.4375 47 -32.6875 C 48.644531 -37.363281 50.222656 -41.328125 51.734375 -44.578125 C 53.253906 -47.835938 54.90625 -50.3125 56.6875 -52 C 58.476562 -53.6875 60.53125 -54.53125 62.84375 -54.53125 C 64.675781 -54.53125 66.15625 -53.960938 67.28125 -52.828125 C 68.414062 -51.691406 68.984375 -49.847656 68.984375 -47.296875 C 68.984375 -44.691406 68.34375 -41.976562 67.0625 -39.15625 C 65.789062 -36.332031 64.019531 -33.738281 61.75 -31.375 C 59.488281 -29.019531 56.863281 -27.238281 53.875 -26.03125 C 52.476562 -25.457031 51.78125 -24.203125 51.78125 -22.265625 C 51.78125 -20.578125 52.269531 -19.128906 53.25 -17.921875 C 54.238281 -16.722656 55.601562 -16.125 57.34375 -16.125 C 58.644531 -16.125 59.929688 -16.4375 61.203125 -17.0625 C 62.484375 -17.6875 63.507812 -18.601562 64.28125 -19.8125 Z M 54.734375 -35.9375 C 54.160156 -34.101562 53.894531 -32.945312 53.9375 -32.46875 C 53.988281 -31.988281 54.1875 -31.75 54.53125 -31.75 C 55.25 -31.75 56.050781 -32.179688 56.9375 -33.046875 C 57.832031 -33.910156 58.59375 -34.929688 59.21875 -36.109375 C 59.851562 -37.296875 60.171875 -38.320312 60.171875 -39.1875 C 60.171875 -40.394531 59.660156 -41 58.640625 -41 C 57.628906 -41 56.832031 -40.476562 56.25 -39.4375 C 55.675781 -38.40625 55.171875 -37.238281 54.734375 -35.9375 Z M 54.734375 -35.9375 "/></g></g><g style="fill:#ffffff;fill-opacity:1;"><g transform="translate(359.637652, 66.487469)"><path style="stroke:none" d="M 36.078125 -19.8125 C 36.367188 -20.25 36.828125 -20.40625 37.453125 -20.28125 C 38.078125 -20.164062 38.617188 -19.898438 39.078125 -19.484375 C 39.535156 -19.078125 39.625 -18.582031 39.34375 -18 C 38.664062 -16.5625 37.785156 -15.066406 36.703125 -13.515625 C 35.617188 -11.972656 34.269531 -10.679688 32.65625 -9.640625 C 31.039062 -8.609375 29.050781 -8.09375 26.6875 -8.09375 L 25.8125 -8.09375 C 24.03125 -5.632812 21.894531 -3.671875 19.40625 -2.203125 C 16.925781 -0.734375 14.335938 0 11.640625 0 C 8.410156 0 5.734375 -1.082031 3.609375 -3.25 C 1.492188 -5.425781 0.4375 -8.394531 0.4375 -12.15625 C 0.4375 -14.851562 0.929688 -17.609375 1.921875 -20.421875 C 2.910156 -23.242188 4.296875 -25.847656 6.078125 -28.234375 C 7.859375 -30.617188 9.953125 -32.535156 12.359375 -33.984375 C 14.773438 -35.429688 17.425781 -36.15625 20.3125 -36.15625 C 22.289062 -36.15625 24.078125 -35.753906 25.671875 -34.953125 C 27.265625 -34.160156 28.53125 -32.847656 29.46875 -31.015625 C 30.40625 -29.191406 30.875 -26.757812 30.875 -23.71875 C 30.875 -21.164062 30.515625 -18.679688 29.796875 -16.265625 L 30.296875 -16.265625 C 31.359375 -16.265625 32.367188 -16.539062 33.328125 -17.09375 C 34.296875 -17.65625 35.210938 -18.5625 36.078125 -19.8125 Z M 15.765625 -14.96875 C 16.972656 -14.96875 18.03125 -15.328125 18.9375 -16.046875 C 19.851562 -16.773438 20.578125 -17.65625 21.109375 -18.6875 C 21.640625 -19.726562 21.90625 -20.753906 21.90625 -21.765625 C 21.90625 -22.828125 21.59375 -23.726562 20.96875 -24.46875 C 20.34375 -25.21875 19.332031 -25.59375 17.9375 -25.59375 C 16.78125 -25.59375 15.753906 -25.253906 14.859375 -24.578125 C 13.960938 -23.910156 13.257812 -23.054688 12.75 -22.015625 C 12.25 -20.984375 12 -19.9375 12 -18.875 C 12 -17.8125 12.285156 -16.894531 12.859375 -16.125 C 13.441406 -15.351562 14.410156 -14.96875 15.765625 -14.96875 Z M 15.765625 -14.96875 "/></g></g><g style="fill:#ffffff;fill-opacity:1;"><g transform="translate(394.054328, 66.487469)"><path style="stroke:none" d="M 7.296875 0 C 4.597656 0 2.609375 -0.828125 1.328125 -2.484375 C 0.0546875 -4.148438 -0.578125 -6.320312 -0.578125 -9 C -0.578125 -11.675781 -0.046875 -14.554688 1.015625 -17.640625 C 1.640625 -19.472656 2.335938 -21.445312 3.109375 -23.5625 C 3.878906 -25.6875 4.722656 -28.003906 5.640625 -30.515625 C 4.578125 -30.515625 3.769531 -30.789062 3.21875 -31.34375 C 2.664062 -31.894531 2.300781 -32.546875 2.125 -33.296875 C 1.957031 -34.046875 1.957031 -34.695312 2.125 -35.25 C 2.300781 -35.800781 2.601562 -36.078125 3.03125 -36.078125 C 5.15625 -36.078125 6.816406 -36.664062 8.015625 -37.84375 C 9.222656 -39.03125 10.070312 -40.273438 10.5625 -41.578125 C 11.425781 -43.703125 12.265625 -45.039062 13.078125 -45.59375 C 13.898438 -46.144531 14.769531 -46.421875 15.6875 -46.421875 C 17.039062 -46.421875 17.882812 -45.851562 18.21875 -44.71875 C 18.5625 -43.59375 18.175781 -41.894531 17.0625 -39.625 C 16.53125 -38.46875 16.238281 -37.585938 16.1875 -36.984375 C 16.144531 -36.378906 16.460938 -36.078125 17.140625 -36.078125 L 20.890625 -36.078125 C 21.378906 -36.078125 21.695312 -35.738281 21.84375 -35.0625 C 21.988281 -34.394531 21.972656 -33.625 21.796875 -32.75 C 21.628906 -31.882812 21.316406 -31.113281 20.859375 -30.4375 C 20.398438 -29.769531 19.8125 -29.4375 19.09375 -29.4375 C 16.875 -29.4375 15.234375 -29.347656 14.171875 -29.171875 C 13.109375 -29.003906 12.359375 -28.582031 11.921875 -27.90625 C 11.492188 -27.238281 11.039062 -26.082031 10.5625 -24.4375 C 9.789062 -21.9375 9.894531 -19.9375 10.875 -18.4375 C 11.863281 -16.945312 13.421875 -16.203125 15.546875 -16.203125 C 16.992188 -16.203125 18.28125 -16.523438 19.40625 -17.171875 C 20.539062 -17.828125 21.472656 -18.707031 22.203125 -19.8125 C 22.585938 -20.394531 23.082031 -20.597656 23.6875 -20.421875 C 24.289062 -20.253906 24.796875 -19.929688 25.203125 -19.453125 C 25.609375 -18.972656 25.691406 -18.488281 25.453125 -18 C 25.015625 -17.1875 24.4375 -16.054688 23.71875 -14.609375 C 23 -13.160156 22.128906 -11.59375 21.109375 -9.90625 C 20.097656 -8.21875 18.914062 -6.625 17.5625 -5.125 C 16.21875 -3.632812 14.6875 -2.40625 12.96875 -1.4375 C 11.257812 -0.476562 9.367188 0 7.296875 0 Z M 7.296875 0 "/></g></g><g style="fill:#ffffff;fill-opacity:1;"><g transform="translate(414.588676, 66.487469)"><path style="stroke:none" d="M 7.296875 0 C 4.597656 0 2.609375 -0.828125 1.328125 -2.484375 C 0.0546875 -4.148438 -0.578125 -6.320312 -0.578125 -9 C -0.578125 -11.675781 -0.046875 -14.554688 1.015625 -17.640625 C 1.640625 -19.472656 2.335938 -21.445312 3.109375 -23.5625 C 3.878906 -25.6875 4.722656 -28.003906 5.640625 -30.515625 C 4.578125 -30.515625 3.769531 -30.789062 3.21875 -31.34375 C 2.664062 -31.894531 2.300781 -32.546875 2.125 -33.296875 C 1.957031 -34.046875 1.957031 -34.695312 2.125 -35.25 C 2.300781 -35.800781 2.601562 -36.078125 3.03125 -36.078125 C 5.15625 -36.078125 6.816406 -36.664062 8.015625 -37.84375 C 9.222656 -39.03125 10.070312 -40.273438 10.5625 -41.578125 C 11.425781 -43.703125 12.265625 -45.039062 13.078125 -45.59375 C 13.898438 -46.144531 14.769531 -46.421875 15.6875 -46.421875 C 17.039062 -46.421875 17.882812 -45.851562 18.21875 -44.71875 C 18.5625 -43.59375 18.175781 -41.894531 17.0625 -39.625 C 16.53125 -38.46875 16.238281 -37.585938 16.1875 -36.984375 C 16.144531 -36.378906 16.460938 -36.078125 17.140625 -36.078125 L 20.890625 -36.078125 C 21.378906 -36.078125 21.695312 -35.738281 21.84375 -35.0625 C 21.988281 -34.394531 21.972656 -33.625 21.796875 -32.75 C 21.628906 -31.882812 21.316406 -31.113281 20.859375 -30.4375 C 20.398438 -29.769531 19.8125 -29.4375 19.09375 -29.4375 C 16.875 -29.4375 15.234375 -29.347656 14.171875 -29.171875 C 13.109375 -29.003906 12.359375 -28.582031 11.921875 -27.90625 C 11.492188 -27.238281 11.039062 -26.082031 10.5625 -24.4375 C 9.789062 -21.9375 9.894531 -19.9375 10.875 -18.4375 C 11.863281 -16.945312 13.421875 -16.203125 15.546875 -16.203125 C 16.992188 -16.203125 18.28125 -16.523438 19.40625 -17.171875 C 20.539062 -17.828125 21.472656 -18.707031 22.203125 -19.8125 C 22.585938 -20.394531 23.082031 -20.597656 23.6875 -20.421875 C 24.289062 -20.253906 24.796875 -19.929688 25.203125 -19.453125 C 25.609375 -18.972656 25.691406 -18.488281 25.453125 -18 C 25.015625 -17.1875 24.4375 -16.054688 23.71875 -14.609375 C 23 -13.160156 22.128906 -11.59375 21.109375 -9.90625 C 20.097656 -8.21875 18.914062 -6.625 17.5625 -5.125 C 16.21875 -3.632812 14.6875 -2.40625 12.96875 -1.4375 C 11.257812 -0.476562 9.367188 0 7.296875 0 Z M 7.296875 0 "/></g></g><g style="fill:#ffffff;fill-opacity:1;"><g transform="translate(435.122985, 66.487469)"><path style="stroke:none" d="M 14.53125 -39.125 C 12.800781 -39.125 11.304688 -39.492188 10.046875 -40.234375 C 8.796875 -40.984375 8.171875 -42.320312 8.171875 -44.25 C 8.171875 -46.8125 8.878906 -48.5625 10.296875 -49.5 C 11.722656 -50.4375 13.425781 -50.90625 15.40625 -50.90625 C 17.238281 -50.90625 18.789062 -50.492188 20.0625 -49.671875 C 21.34375 -48.859375 21.882812 -47.316406 21.6875 -45.046875 C 21.5 -42.828125 20.726562 -41.285156 19.375 -40.421875 C 18.03125 -39.554688 16.414062 -39.125 14.53125 -39.125 Z M 6.515625 0 C 4.097656 0 2.382812 -0.878906 1.375 -2.640625 C 0.363281 -4.398438 -0.140625 -6.535156 -0.140625 -9.046875 C -0.140625 -10.722656 0.0234375 -12.5 0.359375 -14.375 C 0.703125 -16.257812 1.132812 -18.070312 1.65625 -19.8125 C 3.34375 -25.070312 4.984375 -29.109375 6.578125 -31.921875 C 8.171875 -34.742188 10.003906 -36.15625 12.078125 -36.15625 C 13.710938 -36.15625 14.53125 -35.070312 14.53125 -32.90625 C 14.53125 -31.457031 14.253906 -29.972656 13.703125 -28.453125 C 13.148438 -26.929688 12.609375 -25.4375 12.078125 -23.96875 C 11.546875 -22.5 11.28125 -21.113281 11.28125 -19.8125 C 11.28125 -18.601562 11.582031 -17.695312 12.1875 -17.09375 C 12.789062 -16.5 13.570312 -16.203125 14.53125 -16.203125 C 15.644531 -16.203125 16.570312 -16.535156 17.3125 -17.203125 C 18.0625 -17.878906 18.800781 -18.75 19.53125 -19.8125 C 19.914062 -20.394531 20.40625 -20.613281 21 -20.46875 C 21.601562 -20.320312 22.109375 -19.992188 22.515625 -19.484375 C 22.929688 -18.984375 23.019531 -18.515625 22.78125 -18.078125 C 22.300781 -17.304688 21.734375 -16.195312 21.078125 -14.75 C 20.429688 -13.300781 19.648438 -11.734375 18.734375 -10.046875 C 17.816406 -8.359375 16.765625 -6.753906 15.578125 -5.234375 C 14.398438 -3.722656 13.0625 -2.472656 11.5625 -1.484375 C 10.070312 -0.492188 8.390625 0 6.515625 0 Z M 6.515625 0 "/></g></g><g style="fill:#ffffff;fill-opacity:1;"><g transform="translate(452.90975, 66.487469)"><path style="stroke:none" d="M 13.59375 0 C 10.695312 0 8.320312 -0.648438 6.46875 -1.953125 C 4.613281 -3.253906 3.238281 -4.976562 2.34375 -7.125 C 1.457031 -9.269531 1.023438 -11.628906 1.046875 -14.203125 C 1.066406 -16.785156 1.507812 -19.363281 2.375 -21.9375 C 3.25 -24.519531 4.503906 -26.882812 6.140625 -29.03125 C 7.785156 -31.175781 9.773438 -32.898438 12.109375 -34.203125 C 14.453125 -35.503906 17.09375 -36.15625 20.03125 -36.15625 C 22.289062 -36.15625 24.132812 -35.734375 25.5625 -34.890625 C 26.988281 -34.046875 28.035156 -32.925781 28.703125 -31.53125 C 29.378906 -30.132812 29.71875 -28.640625 29.71875 -27.046875 C 29.71875 -25.304688 29.234375 -23.566406 28.265625 -21.828125 C 27.304688 -20.097656 25.957031 -18.664062 24.21875 -17.53125 C 22.488281 -16.40625 20.441406 -15.84375 18.078125 -15.84375 C 17.066406 -15.84375 16.078125 -15.910156 15.109375 -16.046875 C 14.148438 -16.191406 13.257812 -16.507812 12.4375 -17 C 12.195312 -17.132812 11.929688 -17.140625 11.640625 -17.015625 C 11.347656 -16.898438 11.203125 -16.601562 11.203125 -16.125 C 11.203125 -14.875 11.9375 -13.921875 13.40625 -13.265625 C 14.882812 -12.617188 16.660156 -12.296875 18.734375 -12.296875 C 21.191406 -12.296875 23.734375 -12.921875 26.359375 -14.171875 C 28.984375 -15.421875 31.113281 -17.300781 32.75 -19.8125 C 33.144531 -20.394531 33.65625 -20.597656 34.28125 -20.421875 C 34.90625 -20.253906 35.421875 -19.929688 35.828125 -19.453125 C 36.242188 -18.972656 36.304688 -18.488281 36.015625 -18 C 32.828125 -12.125 29.34375 -7.65625 25.5625 -4.59375 C 21.78125 -1.53125 17.789062 0 13.59375 0 Z M 16.203125 -21.265625 C 17.597656 -21.265625 18.691406 -21.707031 19.484375 -22.59375 C 20.285156 -23.488281 20.6875 -24.394531 20.6875 -25.3125 C 20.6875 -26.125 20.40625 -26.820312 19.84375 -27.40625 C 19.289062 -27.988281 18.460938 -28.28125 17.359375 -28.28125 C 15.960938 -28.28125 14.851562 -27.84375 14.03125 -26.96875 C 13.207031 -26.101562 12.796875 -25.1875 12.796875 -24.21875 C 12.796875 -23.445312 13.070312 -22.757812 13.625 -22.15625 C 14.1875 -21.5625 15.046875 -21.265625 16.203125 -21.265625 Z M 16.203125 -21.265625 "/></g></g><g style="fill:#ffffff;fill-opacity:1;"><g transform="translate(484.000476, 66.487469)"><path style="stroke:none" d="M 29.71875 -19.8125 C 30.101562 -20.394531 30.597656 -20.597656 31.203125 -20.421875 C 31.804688 -20.253906 32.3125 -19.929688 32.71875 -19.453125 C 33.132812 -18.972656 33.21875 -18.488281 32.96875 -18 C 32.582031 -17.1875 32.015625 -16.039062 31.265625 -14.5625 C 30.523438 -13.09375 29.585938 -11.523438 28.453125 -9.859375 C 27.316406 -8.203125 25.941406 -6.625 24.328125 -5.125 C 22.710938 -3.632812 20.859375 -2.421875 18.765625 -1.484375 C 16.671875 -0.546875 14.269531 -0.078125 11.5625 -0.078125 C 8.382812 -0.078125 5.867188 -0.75 4.015625 -2.09375 C 2.160156 -3.445312 0.894531 -5.160156 0.21875 -7.234375 C -0.457031 -9.304688 -0.648438 -11.472656 -0.359375 -13.734375 C -0.0664062 -16.003906 0.601562 -18.03125 1.65625 -19.8125 L 1.953125 -20.25 C 3.253906 -21.976562 4.539062 -23.867188 5.8125 -25.921875 C 7.09375 -27.972656 8.40625 -29.898438 9.75 -31.703125 C 11.101562 -33.515625 12.503906 -35.007812 13.953125 -36.1875 C 15.398438 -37.375 16.894531 -37.96875 18.4375 -37.96875 C 20.707031 -37.96875 22.382812 -37.4375 23.46875 -36.375 C 24.550781 -35.3125 25.066406 -34.203125 25.015625 -33.046875 C 25.015625 -32.460938 24.757812 -31.976562 24.25 -31.59375 C 23.75 -31.207031 23.148438 -30.859375 22.453125 -30.546875 C 21.753906 -30.234375 21.140625 -29.847656 20.609375 -29.390625 C 20.078125 -28.929688 19.8125 -28.34375 19.8125 -27.625 C 19.8125 -27.1875 20.148438 -26.316406 20.828125 -25.015625 C 21.503906 -23.710938 22.226562 -22.253906 23 -20.640625 C 23.769531 -19.023438 24.300781 -17.472656 24.59375 -15.984375 C 25.695312 -16.023438 26.644531 -16.40625 27.4375 -17.125 C 28.238281 -17.851562 29 -18.75 29.71875 -19.8125 Z M 8.96875 -14.96875 C 10.5625 -14.96875 11.789062 -15.472656 12.65625 -16.484375 C 13.519531 -17.492188 13.953125 -18.75 13.953125 -20.25 C 13.953125 -21.113281 13.816406 -22.003906 13.546875 -22.921875 C 13.285156 -23.835938 12.890625 -24.78125 12.359375 -25.75 C 11.878906 -26.707031 11.300781 -26.707031 10.625 -25.75 C 9.707031 -24.394531 8.726562 -23.03125 7.6875 -21.65625 C 6.65625 -20.28125 5.734375 -19.0625 4.921875 -18 C 4.921875 -17.132812 5.289062 -16.410156 6.03125 -15.828125 C 6.78125 -15.253906 7.757812 -14.96875 8.96875 -14.96875 Z M 8.96875 -14.96875 "/></g></g></g></g></g></svg>